<svg width="18" height="16" viewBox="0 0 18 16" fill="none" xmlns="http://www.w3.org/2000/svg">
<path d="M15.2378 2.77022C14.0905 2.3023 12.8602 1.95755 11.5739 1.76011C11.5505 1.75629 11.5271 1.76582 11.515 1.78486C11.3568 2.03501 11.1815 2.36134 11.0588 2.61784C9.6753 2.43372 8.29889 2.43372 6.94374 2.61784C6.82099 2.35564 6.63936 2.03501 6.48043 1.78486C6.46836 1.76645 6.44496 1.75693 6.42154 1.76011C5.13593 1.95692 3.90567 2.30167 2.7577 2.77022C2.74776 2.77403 2.73925 2.78038 2.73359 2.78863C0.400044 5.88754 -0.239213 8.91028 0.0743851 11.8955C0.075804 11.9101 0.0850274 11.9241 0.0977985 11.933C1.63741 12.938 3.12878 13.5482 4.59246 13.9526C4.61588 13.9589 4.6407 13.9513 4.65561 13.9342C5.00184 13.5139 5.31048 13.0707 5.57511 12.6047C5.59072 12.5774 5.57582 12.545 5.5439 12.5342C5.05435 12.3692 4.5882 12.1679 4.1398 11.9393C4.10433 11.9209 4.10149 11.8758 4.13412 11.8543C4.22848 11.7914 4.32286 11.726 4.41297 11.66C4.42927 11.6479 4.45198 11.6454 4.47115 11.653C7.41696 12.8485 10.6062 12.8485 13.5172 11.653C13.5364 11.6447 13.5591 11.6473 13.5761 11.6593C13.6662 11.7254 13.7606 11.7914 13.8557 11.8543C13.8883 11.8758 13.8862 11.9209 13.8507 11.9393C13.4023 12.1723 12.9361 12.3692 12.4459 12.5336C12.414 12.5444 12.3998 12.5774 12.4154 12.6047C12.6857 13.0701 12.9943 13.5132 13.3342 13.9335C13.3484 13.9513 13.3739 13.9589 13.3973 13.9526C14.8681 13.5482 16.3595 12.938 17.8991 11.933C17.9126 11.9241 17.9211 11.9108 17.9225 11.8962C18.2978 8.44488 17.2939 5.44693 15.2612 2.78926C15.2562 2.78038 15.2477 2.77403 15.2378 2.77022ZM6.01502 10.0778C5.12812 10.0778 4.39735 9.35406 4.39735 8.46521C4.39735 7.57635 5.11395 6.85259 6.01502 6.85259C6.92315 6.85259 7.64686 7.5827 7.63266 8.46521C7.63266 9.35406 6.91606 10.0778 6.01502 10.0778ZM11.9961 10.0778C11.1092 10.0778 10.3784 9.35406 10.3784 8.46521C10.3784 7.57635 11.095 6.85259 11.9961 6.85259C12.9042 6.85259 13.6279 7.5827 13.6137 8.46521C13.6137 9.35406 12.9042 10.0778 11.9961 10.0778Z" fill="#5865F2"/>
</svg>
